<!--?xml version="1.0" standalone="no"?-->
              <svg id="sw-js-blob-svg" viewBox="0 0 100 100" xmlns="http://www.w3.org/2000/svg" version="1.1">
                    <defs> 
                        <linearGradient id="sw-gradient" x1="0" x2="1" y1="1" y2="0">
                            <stop id="stop1" stop-color="rgba(248, 117, 55, 1)" offset="0%"></stop>
                            <stop id="stop2" stop-color="rgba(251, 168, 31, 1)" offset="100%"></stop>
                        </linearGradient>
                    </defs>
                <path fill="url(#sw-gradient)" d="M19.8,-27.4C27.1,-26.1,35.6,-23.1,39.6,-17.3C43.5,-11.4,42.8,-2.7,41.2,5.6C39.6,14,37,21.9,31.3,25.6C25.7,29.3,17,28.8,9.8,28.8C2.6,28.8,-3.1,29.3,-10,29.4C-17,29.5,-25.2,29.2,-30.5,25.2C-35.8,21.3,-38.1,13.5,-39.9,5.4C-41.6,-2.8,-42.7,-11.4,-40.4,-19.3C-38.1,-27.1,-32.3,-34.2,-25,-35.6C-17.7,-36.9,-8.9,-32.6,-1.3,-30.5C6.2,-28.5,12.4,-28.7,19.8,-27.4Z" width="100%" height="100%" transform="translate(50 50)" stroke-width="0" style="transition: all 0.3s ease 0s;"></path>
              </svg>