<svg id="visual" viewBox="0 0 900 600" width="900" height="600" xmlns="http://www.w3.org/2000/svg" xmlns:xlink="http://www.w3.org/1999/xlink" version="1.1"><path d="M0 79L82 61L164 103L245 97L327 79L409 103L491 85L573 61L655 91L736 49L818 61L900 55L900 0L818 0L736 0L655 0L573 0L491 0L409 0L327 0L245 0L164 0L82 0L0 0Z" fill="#00cc8e"></path><path d="M0 145L82 133L164 211L245 169L327 187L409 163L491 169L573 169L655 163L736 133L818 187L900 151L900 53L818 59L736 47L655 89L573 59L491 83L409 101L327 77L245 95L164 101L82 59L0 77Z" fill="#00b98a"></path><path d="M0 253L82 295L164 325L245 265L327 409L409 289L491 283L573 265L655 427L736 319L818 421L900 295L900 149L818 185L736 131L655 161L573 167L491 167L409 161L327 185L245 167L164 209L82 131L0 143Z" fill="#00a784"></path><path d="M0 475L82 475L164 547L245 487L327 499L409 475L491 463L573 469L655 511L736 445L818 511L900 439L900 293L818 419L736 317L655 425L573 263L491 281L409 287L327 407L245 263L164 323L82 293L0 251Z" fill="#00957c"></path><path d="M0 601L82 601L164 601L245 601L327 601L409 601L491 601L573 601L655 601L736 601L818 601L900 601L900 437L818 509L736 443L655 509L573 467L491 461L409 473L327 497L245 485L164 545L82 473L0 473Z" fill="#038373"></path></svg>