<svg id="visual" viewBox="0 0 900 600" width="900" height="600" xmlns="http://www.w3.org/2000/svg" xmlns:xlink="http://www.w3.org/1999/xlink" version="1.1"><path d="M0 85L13.7 86C27.3 87 54.7 89 82 98C109.3 107 136.7 123 163.8 131C191 139 218 139 245.2 132C272.3 125 299.7 111 327 99C354.3 87 381.7 77 409 87C436.3 97 463.7 127 491 142C518.3 157 545.7 157 573 139C600.3 121 627.7 85 654.8 71C682 57 709 65 736.2 67C763.3 69 790.7 65 818 74C845.3 83 872.7 105 886.3 116L900 127L900 0L886.3 0C872.7 0 845.3 0 818 0C790.7 0 763.3 0 736.2 0C709 0 682 0 654.8 0C627.7 0 600.3 0 573 0C545.7 0 518.3 0 491 0C463.7 0 436.3 0 409 0C381.7 0 354.3 0 327 0C299.7 0 272.3 0 245.2 0C218 0 191 0 163.8 0C136.7 0 109.3 0 82 0C54.7 0 27.3 0 13.7 0L0 0Z" fill="#004cbb"></path><path d="M0 151L13.7 159C27.3 167 54.7 183 82 195C109.3 207 136.7 215 163.8 219C191 223 218 223 245.2 213C272.3 203 299.7 183 327 167C354.3 151 381.7 139 409 152C436.3 165 463.7 203 491 217C518.3 231 545.7 221 573 210C600.3 199 627.7 187 654.8 176C682 165 709 155 736.2 152C763.3 149 790.7 153 818 167C845.3 181 872.7 205 886.3 217L900 229L900 125L886.3 114C872.7 103 845.3 81 818 72C790.7 63 763.3 67 736.2 65C709 63 682 55 654.8 69C627.7 83 600.3 119 573 137C545.7 155 518.3 155 491 140C463.7 125 436.3 95 409 85C381.7 75 354.3 85 327 97C299.7 109 272.3 123 245.2 130C218 137 191 137 163.8 129C136.7 121 109.3 105 82 96C54.7 87 27.3 85 13.7 84L0 83Z" fill="#0059dd"></path><path d="M0 439L13.7 420C27.3 401 54.7 363 82 343C109.3 323 136.7 321 163.8 321C191 321 218 323 245.2 331C272.3 339 299.7 353 327 370C354.3 387 381.7 407 409 424C436.3 441 463.7 455 491 450C518.3 445 545.7 421 573 399C600.3 377 627.7 357 654.8 340C682 323 709 309 736.2 306C763.3 303 790.7 311 818 341C845.3 371 872.7 423 886.3 449L900 475L900 227L886.3 215C872.7 203 845.3 179 818 165C790.7 151 763.3 147 736.2 150C709 153 682 163 654.8 174C627.7 185 600.3 197 573 208C545.7 219 518.3 229 491 215C463.7 201 436.3 163 409 150C381.7 137 354.3 149 327 165C299.7 181 272.3 201 245.2 211C218 221 191 221 163.8 217C136.7 213 109.3 205 82 193C54.7 181 27.3 165 13.7 157L0 149Z" fill="#0066ff"></path><path d="M0 547L13.7 548C27.3 549 54.7 551 82 553C109.3 555 136.7 557 163.8 555C191 553 218 547 245.2 539C272.3 531 299.7 521 327 518C354.3 515 381.7 519 409 527C436.3 535 463.7 547 491 546C518.3 545 545.7 531 573 526C600.3 521 627.7 525 654.8 525C682 525 709 521 736.2 520C763.3 519 790.7 521 818 527C845.3 533 872.7 543 886.3 548L900 553L900 473L886.3 447C872.7 421 845.3 369 818 339C790.7 309 763.3 301 736.2 304C709 307 682 321 654.8 338C627.7 355 600.3 375 573 397C545.7 419 518.3 443 491 448C463.7 453 436.3 439 409 422C381.7 405 354.3 385 327 368C299.7 351 272.3 337 245.2 329C218 321 191 319 163.8 319C136.7 319 109.3 321 82 341C54.7 361 27.3 399 13.7 418L0 437Z" fill="#3c80ff"></path><path d="M0 601L13.7 601C27.3 601 54.7 601 82 601C109.3 601 136.7 601 163.8 601C191 601 218 601 245.2 601C272.3 601 299.7 601 327 601C354.3 601 381.7 601 409 601C436.3 601 463.7 601 491 601C518.3 601 545.7 601 573 601C600.3 601 627.7 601 654.8 601C682 601 709 601 736.2 601C763.3 601 790.7 601 818 601C845.3 601 872.7 601 886.3 601L900 601L900 551L886.3 546C872.7 541 845.3 531 818 525C790.7 519 763.3 517 736.2 518C709 519 682 523 654.8 523C627.7 523 600.3 519 573 524C545.7 529 518.3 543 491 544C463.7 545 436.3 533 409 525C381.7 517 354.3 513 327 516C299.7 519 272.3 529 245.2 537C218 545 191 551 163.8 553C136.7 555 109.3 553 82 551C54.7 549 27.3 547 13.7 546L0 545Z" fill="#6198ff"></path></svg>