<svg id="visual" viewBox="0 0 900 600" width="900" height="600" xmlns="http://www.w3.org/2000/svg" xmlns:xlink="http://www.w3.org/1999/xlink" version="1.1"><path d="M0 97L82 55L164 73L245 49L327 67L409 97L491 79L573 37L655 91L736 61L818 85L900 55L900 0L818 0L736 0L655 0L573 0L491 0L409 0L327 0L245 0L164 0L82 0L0 0Z" fill="#00cc8e"></path><path d="M0 271L82 253L164 265L245 181L327 217L409 289L491 205L573 241L655 223L736 211L818 391L900 283L900 53L818 83L736 59L655 89L573 35L491 77L409 95L327 65L245 47L164 71L82 53L0 95Z" fill="#00b98a"></path><path d="M0 337L82 331L164 373L245 235L327 325L409 379L491 265L573 289L655 337L736 253L818 439L900 391L900 281L818 389L736 209L655 221L573 239L491 203L409 287L327 215L245 179L164 263L82 251L0 269Z" fill="#00a784"></path><path d="M0 541L82 547L164 553L245 505L327 451L409 475L491 529L573 475L655 481L736 421L818 535L900 541L900 389L818 437L736 251L655 335L573 287L491 263L409 377L327 323L245 233L164 371L82 329L0 335Z" fill="#00957c"></path><path d="M0 601L82 601L164 601L245 601L327 601L409 601L491 601L573 601L655 601L736 601L818 601L900 601L900 539L818 533L736 419L655 479L573 473L491 527L409 473L327 449L245 503L164 551L82 545L0 539Z" fill="#038373"></path></svg>